<svg id='War Thunder' width='24' height='24' viewBox='0 0 24 24' xmlns='http://www.w3.org/2000/svg' xmlns:xlink='http://www.w3.org/1999/xlink'><rect width='24' height='24' stroke='none' fill='#000000' opacity='0'/>


<g transform="matrix(0.42 0 0 0.42 12 12)" >
<g style="" >
<g transform="matrix(1 0 0 1 -1.06 -15.13)" >
<polygon style="stroke: none; stroke-width: 1; stroke-dasharray: none; stroke-linecap: butt; stroke-dashoffset: 0; stroke-linejoin: miter; stroke-miterlimit: 4; fill: rgb(183,28,28); fill-rule: nonzero; opacity: 1;" points="0.09,6.12 2.83,4.84 3.4,5.85 5.15,-1.13 1.16,-6.12 -5.15,1.78 " />
</g>
<g transform="matrix(1 0 0 1 6.34 -10.98)" >
<polygon style="stroke: none; stroke-width: 1; stroke-dasharray: none; stroke-linecap: butt; stroke-dashoffset: 0; stroke-linejoin: miter; stroke-miterlimit: 4; fill: rgb(183,28,28); fill-rule: nonzero; opacity: 1;" points="-2.56,4.24 -2.54,4.29 2.56,0.74 -1.45,-4.28 " />
</g>
<g transform="matrix(1 0 0 1 -3.59 12.46)" >
<polygon style="stroke: none; stroke-width: 1; stroke-dasharray: none; stroke-linecap: butt; stroke-dashoffset: 0; stroke-linejoin: miter; stroke-miterlimit: 4; fill: rgb(183,28,28); fill-rule: nonzero; opacity: 1;" points="0.83,4.97 2.49,-4.97 -1.88,-3.33 0.13,-0.78 -2.49,0.81 " />
</g>
<g transform="matrix(1 0 0 1 2.78 14.36)" >
<polygon style="stroke: none; stroke-width: 1; stroke-dasharray: none; stroke-linecap: butt; stroke-dashoffset: 0; stroke-linejoin: miter; stroke-miterlimit: 4; fill: rgb(183,28,28); fill-rule: nonzero; opacity: 1;" points="0.26,-3.76 -1.96,-6.64 -4.85,3.93 -2.68,6.64 4.85,-2.77 " />
</g>
<g transform="matrix(1 0 0 1 -13.48 -0.54)" >
<polygon style="stroke: none; stroke-width: 1; stroke-dasharray: none; stroke-linecap: butt; stroke-dashoffset: 0; stroke-linejoin: miter; stroke-miterlimit: 4; fill: rgb(183,28,28); fill-rule: nonzero; opacity: 1;" points="3.32,1.21 -0.27,-3.4 -3.32,0.41 -0.93,3.4 " />
</g>
<g transform="matrix(1 0 0 1 1.18 -2.91)" >
<path style="stroke: none; stroke-width: 1; stroke-dasharray: none; stroke-linecap: butt; stroke-dashoffset: 0; stroke-linejoin: miter; stroke-miterlimit: 4; fill: rgb(250,250,250); fill-rule: nonzero; opacity: 1;" transform=" translate(-25.18, -21.09)" d="M 43.78 32.63 L 34.486000000000004 26.716 L 32.83 24.24 L 38.172 21.186999999999998 C 39.574 20.511 36.915 14.471999999999998 34.486 15.657999999999998 L 26.817999999999998 20.635999999999996 L 26.192999999999998 20.264999999999997 C 26.192999999999998 20.264999999999997 16.057 11.971999999999998 12.370999999999999 8.285999999999998 C 8.686 4.601 5 10.13 6.843 12.894 C 8.686 15.658 16.979 25.794 16.979 25.794 L 18.354 26.076 L 14.761 28.385 L 14.264 27.364 C 14.026 26.875 13.41 26.694 12.956 26.994 C 12.305 27.424 11.648 27.982 11.451 28.558 L 8.927 35.113 L 25.217 28.58 L 28.035999999999998 32.244 L 37.553 34.623 C 38.559 34.875 39.616 34.833999999999996 40.599999999999994 34.506 L 43.675 33.481 C 44.055 33.355 44.117 32.845 43.78 32.63 z" stroke-linecap="round" />
</g>
<g transform="matrix(1 0 0 1 0.5 -2.42)" >
<path style="stroke: none; stroke-width: 1; stroke-dasharray: none; stroke-linecap: butt; stroke-dashoffset: 0; stroke-linejoin: miter; stroke-miterlimit: 4; fill: rgb(0,0,0); fill-rule: nonzero; opacity: 1;" transform=" translate(-24.5, -21.58)" d="M 44.049 32.208 L 38.646 28.77 L 40.433 27.905 L 39.997 27.005000000000003 L 37.653999999999996 28.139000000000003 L 34.82599999999999 26.340000000000003 L 33.37799999999999 24.501000000000005 L 38.34199999999999 21.664000000000005 C 38.45099999999999 21.661000000000005 38.55299999999999 21.639000000000006 38.64199999999999 21.588000000000005 C 38.89399999999999 21.443000000000005 39.014999999999986 21.114000000000004 39.01799999999999 20.672000000000004 C 39.02899999999999 20.608000000000004 39.04799999999999 20.557000000000006 39.05299999999998 20.485000000000003 C 39.11099999999998 19.688000000000002 38.756999999999984 18.518000000000004 38.17499999999998 17.464000000000002 C 38.176999999999985 17.464000000000002 38.19099999999998 17.462000000000003 38.19099999999998 17.462000000000003 C 38.19099999999998 17.462000000000003 40.35399999999998 21.608000000000004 42.09699999999998 23.291000000000004 C 43.83999999999998 24.974000000000004 44.31999999999998 23.832000000000004 43.35899999999998 22.450000000000003 C 42.39799999999998 21.068 38.73199999999998 16.981 38.73199999999998 16.981 C 38.73199999999998 16.981 39.39299999999998 14.757000000000001 39.33299999999998 13.375000000000002 C 39.272999999999975 11.993000000000002 38.190999999999974 11.272000000000002 38.13099999999998 12.654000000000002 C 38.07099999999998 14.036000000000001 38.07099999999998 16.44 38.07099999999998 16.44 C 38.07099999999998 16.44 37.808999999999976 16.401 37.424999999999976 16.348000000000003 C 37.13499999999998 15.998000000000003 36.82299999999998 15.686000000000002 36.489999999999974 15.461000000000002 C 35.73799999999997 14.953000000000003 34.96999999999997 14.866000000000001 34.21399999999997 15.240000000000002 L 26.77899999999997 20.038000000000004 L 26.509999999999973 19.879000000000005 C 26.474999999999973 19.850000000000005 25.238999999999972 18.837000000000003 23.488999999999972 17.377000000000006 L 25.74399999999997 15.984000000000005 L 25.218999999999973 15.132000000000005 L 22.67999999999997 16.700000000000006 C 19.41199999999997 13.961000000000006 14.90599999999997 10.114000000000006 12.723999999999972 7.933000000000007 C 11.100999999999972 6.310000000000007 9.198999999999971 6.105000000000007 7.632999999999972 7.387000000000007 C 6.083999999999971 8.657000000000007 5.207999999999972 11.344000000000007 6.425999999999972 13.171000000000006 C 8.26099999999997 15.924000000000007 16.25099999999997 25.696000000000005 16.590999999999973 26.110000000000007 C 16.662999999999972 26.199000000000005 16.764999999999972 26.260000000000005 16.876999999999974 26.284000000000006 L 17.042999999999974 26.318000000000005 L 14.962999999999974 27.660000000000004 L 14.711999999999975 27.145000000000003 C 14.532999999999975 26.778000000000002 14.204999999999975 26.505000000000003 13.810999999999975 26.398000000000003 C 13.425999999999975 26.293000000000003 13.011999999999976 26.357000000000003 12.677999999999976 26.577 C 11.751999999999976 27.19 11.179999999999977 27.803 10.982999999999976 28.378 L 10.727999999999975 29.04 L 7.603999999999974 26.942 C 7.4529999999999745 26.839 7.257999999999974 26.829 7.095999999999974 26.913 L 4.769999999999975 28.113 C 4.623999999999975 28.188 4.524999999999975 28.33 4.502999999999974 28.493 C 4.4819999999999744 28.654999999999998 4.541999999999974 28.817999999999998 4.663999999999974 28.929 L 9.192999999999973 33.025 L 8.457999999999974 34.934 C 8.386999999999974 35.12 8.431999999999974 35.33 8.572999999999974 35.47 C 8.668999999999974 35.564 8.795999999999975 35.614 8.924999999999974 35.614 C 8.986999999999973 35.614 9.050999999999974 35.602 9.111999999999973 35.577999999999996 L 11.433999999999973 34.645999999999994 L 15.168999999999972 36.55899999999999 C 15.239999999999972 36.59499999999999 15.317999999999971 36.61399999999999 15.396999999999972 36.61399999999999 C 15.458999999999971 36.61399999999999 15.522999999999971 36.60199999999999 15.582999999999972 36.57899999999999 L 17.49099999999997 35.81699999999999 C 17.64699999999997 35.754999999999995 17.761999999999972 35.617999999999995 17.79599999999997 35.452999999999996 C 17.828999999999972 35.288 17.77799999999997 35.117999999999995 17.65899999999997 34.998999999999995 L 15.624999999999972 32.964999999999996 L 25.13199999999997 29.148999999999997 L 27.63499999999997 32.541999999999994 C 27.70399999999997 32.635999999999996 27.80299999999997 32.70199999999999 27.91599999999997 32.73 L 37.432999999999964 35.108999999999995 C 37.90899999999996 35.227 38.39399999999996 35.28699999999999 38.877999999999965 35.28699999999999 C 39.51399999999997 35.28699999999999 40.148999999999965 35.18399999999999 40.758999999999965 34.980999999999995 L 43.83299999999996 33.955999999999996 C 44.19299999999996 33.836999999999996 44.44599999999996 33.528 44.49299999999996 33.150999999999996 C 44.539 32.773 44.369 32.413 44.049 32.208 z M 34.786 16.083 C 34.786 16.084999999999997 34.786 16.087999999999997 34.785000000000004 16.09 C 34.773 16.09 34.763000000000005 16.093 34.751000000000005 16.094 C 34.763 16.089 34.775 16.087 34.786 16.083 z M 34.026 16.55 C 33.876000000000005 16.964000000000002 34.141000000000005 17.51 34.826 17.582 C 34.864 17.586000000000002 34.912 17.587 34.953 17.59 C 35.108000000000004 18.108 35.346000000000004 18.673 35.675000000000004 19.242 C 35.676 19.244 35.67700000000001 19.245 35.678000000000004 19.247 C 34.33500000000001 19.259 32.386 19.603 30.920000000000005 21.247 C 30.737000000000005 21.451999999999998 30.443000000000005 21.704 30.072000000000006 21.988 L 27.761000000000006 20.62 L 34.026 16.55 z M 7.259 12.617 C 6.388 11.311 7.021 9.28 8.174 8.253 C 9.131 8.485 13.1 9.693 13.733 13.916 C 14.152000000000001 16.711 18.875 19.138 22.756999999999998 20.682000000000002 L 21.544999999999998 23.711000000000002 L 24.503 24.770000000000003 L 21.665 26.246000000000002 L 17.252 25.341 C 16.256 24.119 8.951 15.156 7.259 12.617 z M 14.014 31.248 L 11.578999999999999 29.613 L 11.921999999999999 28.721 C 12.049 28.352 12.512999999999998 27.887 13.229999999999999 27.412 C 13.303999999999998 27.363 13.377999999999998 27.349999999999998 13.44 27.349999999999998 C 13.484 27.349999999999998 13.520999999999999 27.357 13.546999999999999 27.363999999999997 C 13.662999999999998 27.395999999999997 13.761 27.475999999999996 13.813999999999998 27.584999999999997 L 14.310999999999998 28.605999999999998 C 14.372999999999998 28.735 14.487999999999998 28.831 14.624999999999998 28.869 C 14.760999999999997 28.909 14.908999999999999 28.884999999999998 15.029999999999998 28.808 L 18.450999999999997 26.609 L 21.470999999999997 27.229000000000003 C 18.841 28.689 16.138 30.132 14.014 31.248 z M 40.441 34.032 C 39.546 34.331999999999994 38.591 34.366 37.673 34.138 L 28.331000000000003 31.802999999999997 L 26.039 28.694999999999997 L 28.768 27.134999999999998 L 30.8 29.48 L 40.656 33.96 L 40.441 34.032 z M 43.486 33.017 L 43.037 32.704 L 43.516 33.006 L 43.486 33.017 z" stroke-linecap="round" />
</g>
</g>
</g>
</svg>